<?xml version="1.0" encoding="UTF-8"?>
<!--
  PLACEHOLDER brand mark for MyGamesList — NOT final art.
  A game-controller glyph on the brand gradient. Replace before release.
  See assets/branding/README.md for how to regenerate launcher/splash assets.
-->
<svg width="1024" height="1024" viewBox="0 0 1024 1024" xmlns="http://www.w3.org/2000/svg">
  <defs>
    <linearGradient id="brand" x1="0" y1="0" x2="1" y2="1">
      <stop offset="0" stop-color="#7C4DFF"/>
      <stop offset="1" stop-color="#00E5C7"/>
    </linearGradient>
  </defs>
  <rect width="1024" height="1024" rx="232" fill="url(#brand)"/>
  <g fill="#FFFFFF">
    <!-- Controller body -->
    <path d="M328 396
             C300 396 276 418 270 446
             L228 644
             C220 682 248 716 286 716
             C312 716 332 700 344 678
             L388 600
             L636 600
             L680 678
             C692 700 712 716 738 716
             C776 716 804 682 796 644
             L754 446
             C748 418 724 396 696 396
             Z"/>
  </g>
  <g fill="#7C4DFF">
    <!-- D-pad -->
    <rect x="372" y="476" width="40" height="120" rx="12"/>
    <rect x="332" y="516" width="120" height="40" rx="12"/>
    <!-- Action buttons -->
    <circle cx="636" cy="500" r="26"/>
    <circle cx="700" cy="536" r="26"/>
    <circle cx="636" cy="572" r="26"/>
    <circle cx="572" cy="536" r="26"/>
  </g>
</svg>
