<?xml version="1.0" encoding="UTF-8"?>
<!--
  PLACEHOLDER native-splash logo — NOT final art.
  White controller glyph on a transparent canvas; flutter_native_splash
  centers it over the brand background color. Replace before release.
-->
<svg width="768" height="768" viewBox="0 0 1024 1024" xmlns="http://www.w3.org/2000/svg">
  <g fill="#FFFFFF">
    <path d="M328 396
             C300 396 276 418 270 446
             L228 644
             C220 682 248 716 286 716
             C312 716 332 700 344 678
             L388 600
             L636 600
             L680 678
             C692 700 712 716 738 716
             C776 716 804 682 796 644
             L754 446
             C748 418 724 396 696 396
             Z"/>
  </g>
  <g fill="#12141C">
    <rect x="372" y="476" width="40" height="120" rx="12"/>
    <rect x="332" y="516" width="120" height="40" rx="12"/>
    <circle cx="636" cy="500" r="26"/>
    <circle cx="700" cy="536" r="26"/>
    <circle cx="636" cy="572" r="26"/>
    <circle cx="572" cy="536" r="26"/>
  </g>
</svg>
